<svg width="1em" height="1em" viewBox="0 0 24 24" role="img" xmlns="http://www.w3.org/2000/svg">
  <path fill="currentColor" d="M20.3 4.4A18.5 18.5 0 0 0 15.7 3l-.2.4c1.6.5 2.3 1.1 2.3 1.1a16 16 0 0 0-11.6 0S7 3.9 8.6 3.4L8.4 3a18.5 18.5 0 0 0-4.7 1.4C.8 8.6 0 12.8.4 17c1.9 1.4 3.7 2.2 5.5 2.8l1.1-1.9c-.6-.2-1.1-.5-1.6-.8l.4-.3c3.1 1.4 6.5 1.4 9.5 0l.4.3c-.5.3-1 .6-1.6.8l1.1 1.9c1.8-.5 3.6-1.4 5.5-2.8.5-4.9-.8-9.1-3.4-12.6ZM8.1 14.4c-.9 0-1.7-.9-1.7-2s.8-2 1.7-2c1 0 1.7.9 1.7 2s-.8 2-1.7 2Zm7.8 0c-.9 0-1.7-.9-1.7-2s.8-2 1.7-2c1 0 1.7.9 1.7 2s-.8 2-1.7 2Z"/>
</svg>
